<?xml version="1.0" encoding="UTF-8"?>
<svg id="Layer_1" xmlns="http://www.w3.org/2000/svg" xmlns:xlink="http://www.w3.org/1999/xlink" version="1.1" viewBox="0 0 432 288">
  <!-- Generator: Adobe Illustrator 29.3.1, SVG Export Plug-In . SVG Version: 2.1.0 Build 151)  -->
  <defs>
    <style>
      .st0 {
        fill: none;
      }

      .st1 {
        fill: #711568;
      }

      .st1, .st2, .st3, .st4 {
        stroke: #fff;
        stroke-linecap: round;
        stroke-linejoin: round;
        stroke-width: .4px;
      }

      .st5 {
        font-size: 14px;
      }

      .st5, .st6, .st7, .st8, .st9 {
        fill: #fff;
      }

      .st5, .st7 {
        font-family: Georgia-Bold, Georgia;
        font-weight: 700;
      }

      .st5, .st7, .st10 {
        isolation: isolate;
      }

      .st11 {
        fill: #f6f6f6;
      }

      .st11, .st10, .st8, .st9 {
        font-family: Georgia, Georgia;
      }

      .st11, .st9 {
        font-size: 10px;
      }

      .st7 {
        font-size: 12px;
      }

      .st2 {
        fill: #485487;
      }

      .st10 {
        fill: #858585;
        font-size: 6px;
      }

      .st8 {
        font-size: 8px;
      }

      .st3 {
        fill: #8da0cb;
      }

      .st4 {
        fill: #bf8cb9;
      }
    </style>
  </defs>
  <rect class="st6" x="39" y="1" width="348.8" height="288"/>
  <rect class="st0" x="39" y="-16" width="348.8" height="288"/>
  <rect class="st6" x="39" y="1" width="348.8" height="288"/>
  <rect class="st0" x="43.4" y="11.3" width="339.9" height="255.2"/>
  <rect class="st6" x="43.4" y="11.3" width="339.9" height="255.2"/>
  <polygon class="st3" points="265.9 30 379.3 30 379.2 30 379.8 29.9 380.5 29.8 381.1 29.5 381.6 29.1 382.1 28.6 382.6 28 382.9 27.3 383.2 26.6 383.3 25.8 383.4 25 383.4 25 383.4 16.3 383.4 16.3 383.3 15.5 383.2 14.7 382.9 14 382.6 13.3 382.1 12.7 381.6 12.2 381.1 11.8 380.5 11.5 379.8 11.4 379.3 11.3 265.9 11.3 266.4 11.4 265.8 11.3 265.1 11.4 264.5 11.7 263.9 12 263.4 12.5 262.9 13 262.5 13.7 262.2 14.4 262 15.1 261.9 15.9 261.9 16.3 261.9 25 261.9 24.6 261.9 25.4 262 26.2 262.2 27 262.5 27.7 262.9 28.3 263.4 28.8 263.9 29.3 264.5 29.7 265.1 29.9 265.8 30 265.9 30"/>
  <polygon class="st2" points="47.4 266.5 154 266.5 153.8 266.5 154.5 266.5 155.1 266.3 155.7 266 156.3 265.6 156.8 265.1 157.2 264.5 157.5 263.9 157.8 263.1 158 262.3 158 261.5 158 261.5 158 131.2 158 131.2 158 130.4 157.8 129.6 157.5 128.9 157.2 128.2 156.8 127.6 156.3 127.1 155.7 126.7 155.1 126.4 154.5 126.2 154 126.2 47.4 126.2 47.9 126.2 47.3 126.2 46.6 126.3 46 126.5 45.4 126.9 44.9 127.3 44.4 127.9 44 128.5 43.7 129.2 43.5 130 43.4 130.8 43.4 131.2 43.4 261.5 43.4 261.1 43.4 261.9 43.5 262.7 43.7 263.5 44 264.2 44.4 264.8 44.9 265.4 45.4 265.9 46 266.2 46.6 266.4 47.3 266.5 47.4 266.5"/>
  <polygon class="st2" points="162 266.5 257.9 266.5 257.7 266.5 258.4 266.5 259 266.3 259.6 266 260.2 265.6 260.7 265.1 261.1 264.5 261.4 263.9 261.7 263.1 261.9 262.3 261.9 261.5 261.9 261.5 261.9 131.2 261.9 131.2 261.9 130.4 261.7 129.6 261.4 128.9 261.1 128.2 260.7 127.6 260.2 127.1 259.6 126.7 259 126.4 258.4 126.2 257.9 126.2 162 126.2 162.5 126.2 161.9 126.2 161.2 126.3 160.6 126.5 160 126.9 159.5 127.3 159 127.9 158.6 128.5 158.3 129.2 158.1 130 158 130.8 158 131.2 158 261.5 158 261.1 158 261.9 158.1 262.7 158.3 263.5 158.6 264.2 159 264.8 159.5 265.4 160 265.9 160.6 266.2 161.2 266.4 161.9 266.5 162 266.5"/>
  <polygon class="st2" points="47.4 126.2 146.3 126.2 146.1 126.2 146.8 126.2 147.4 126 148 125.7 148.6 125.3 149.1 124.8 149.5 124.2 149.8 123.5 150.1 122.8 150.3 122 150.3 121.2 150.3 121.2 150.3 54.8 150.3 54.8 150.3 54 150.1 53.3 149.8 52.5 149.5 51.8 149.1 51.2 148.6 50.7 148 50.3 147.4 50.1 146.8 49.9 146.3 49.9 47.4 49.9 47.9 49.9 47.3 49.9 46.6 50 46 50.2 45.4 50.5 44.9 51 44.4 51.5 44 52.2 43.7 52.9 43.5 53.7 43.4 54.4 43.4 54.8 43.4 121.2 43.4 120.8 43.4 121.6 43.5 122.4 43.7 123.2 44 123.9 44.4 124.5 44.9 125.1 45.4 125.5 46 125.9 46.6 126.1 47.3 126.2 47.4 126.2"/>
  <polygon class="st2" points="47.4 49.9 146.3 49.9 146.1 49.8 146.8 49.8 147.4 49.7 148 49.4 148.6 49 149.1 48.5 149.5 47.9 149.8 47.2 150.1 46.5 150.3 45.7 150.3 44.9 150.3 44.9 150.3 16.3 150.3 16.3 150.3 15.5 150.1 14.7 149.8 14 149.5 13.3 149.1 12.7 148.6 12.2 148 11.8 147.4 11.5 146.8 11.4 146.3 11.3 47.4 11.3 47.9 11.4 47.3 11.3 46.6 11.4 46 11.7 45.4 12 44.9 12.5 44.4 13 44 13.7 43.7 14.4 43.5 15.1 43.4 15.9 43.4 16.3 43.4 44.9 43.4 44.5 43.4 45.3 43.5 46.1 43.7 46.8 44 47.5 44.4 48.2 44.9 48.7 45.4 49.2 46 49.5 46.6 49.8 47.3 49.8 47.4 49.9"/>
  <polygon class="st2" points="154.3 126.2 205.2 126.2 205 126.2 205.7 126.2 206.3 126 206.9 125.7 207.5 125.3 208 124.8 208.4 124.2 208.7 123.5 209 122.8 209.1 122 209.2 121.2 209.2 121.2 209.2 72.7 209.2 72.7 209.1 71.9 209 71.1 208.7 70.4 208.4 69.7 208 69.1 207.5 68.6 206.9 68.2 206.3 67.9 205.7 67.8 205.2 67.7 154.3 67.7 154.8 67.8 154.2 67.7 153.5 67.8 152.9 68.1 152.3 68.4 151.8 68.8 151.3 69.4 150.9 70.1 150.6 70.8 150.4 71.5 150.3 72.3 150.3 72.7 150.3 121.2 150.3 120.8 150.3 121.6 150.4 122.4 150.6 123.2 150.9 123.9 151.3 124.5 151.8 125.1 152.3 125.5 152.9 125.9 153.5 126.1 154.2 126.2 154.3 126.2"/>
  <polygon class="st2" points="213.2 126.2 257.9 126.2 257.7 126.2 258.4 126.2 259 126 259.6 125.7 260.2 125.3 260.7 124.8 261.1 124.2 261.4 123.5 261.7 122.8 261.9 122 261.9 121.2 261.9 121.2 261.9 72.7 261.9 72.7 261.9 71.9 261.7 71.1 261.4 70.4 261.1 69.7 260.7 69.1 260.2 68.6 259.6 68.2 259 67.9 258.4 67.8 257.9 67.7 213.2 67.7 213.7 67.8 213.1 67.7 212.4 67.8 211.8 68.1 211.2 68.4 210.7 68.8 210.2 69.4 209.8 70.1 209.5 70.8 209.3 71.5 209.2 72.3 209.2 72.7 209.2 121.2 209.2 120.8 209.2 121.6 209.3 122.4 209.5 123.2 209.8 123.9 210.2 124.5 210.7 125.1 211.2 125.5 211.8 125.9 212.4 126.1 213.1 126.2 213.2 126.2"/>
  <polygon class="st2" points="154.3 67.7 191.6 67.7 191.4 67.7 192.1 67.7 192.7 67.5 193.3 67.2 193.9 66.8 194.4 66.3 194.8 65.7 195.1 65.1 195.4 64.3 195.6 63.6 195.6 62.8 195.6 62.8 195.6 16.3 195.6 16.3 195.6 15.5 195.4 14.7 195.1 14 194.8 13.3 194.4 12.7 193.9 12.2 193.3 11.8 192.7 11.5 192.1 11.4 191.6 11.3 154.3 11.3 154.8 11.4 154.2 11.3 153.5 11.4 152.9 11.7 152.3 12 151.8 12.5 151.3 13 150.9 13.7 150.6 14.4 150.4 15.1 150.3 15.9 150.3 16.3 150.3 62.8 150.3 62.3 150.3 63.2 150.4 63.9 150.6 64.7 150.9 65.4 151.3 66.1 151.8 66.6 152.3 67.1 152.9 67.4 153.5 67.6 154.2 67.7 154.3 67.7"/>
  <polygon class="st2" points="199.6 67.7 257.9 67.7 257.7 67.7 258.4 67.7 259 67.5 259.6 67.2 260.2 66.8 260.7 66.3 261.1 65.7 261.4 65.1 261.7 64.3 261.9 63.6 261.9 62.8 261.9 62.8 261.9 43.8 261.9 43.8 261.9 43 261.7 42.2 261.4 41.5 261.1 40.8 260.7 40.2 260.2 39.7 259.6 39.3 259 39 258.4 38.9 257.9 38.8 199.6 38.8 200.1 38.9 199.5 38.8 198.8 38.9 198.2 39.2 197.6 39.5 197.1 40 196.6 40.5 196.2 41.2 195.9 41.9 195.7 42.6 195.6 43.4 195.6 43.8 195.6 62.8 195.6 62.3 195.6 63.2 195.7 63.9 195.9 64.7 196.2 65.4 196.6 66.1 197.1 66.6 197.6 67.1 198.2 67.4 198.8 67.6 199.5 67.7 199.6 67.7"/>
  <polygon class="st2" points="199.6 38.8 257.9 38.8 257.7 38.8 258.4 38.8 259 38.6 259.6 38.3 260.2 38 260.7 37.5 261.1 36.8 261.4 36.2 261.7 35.4 261.9 34.7 261.9 33.8 261.9 33.8 261.9 16.3 261.9 16.3 261.9 15.5 261.7 14.7 261.4 14 261.1 13.3 260.7 12.7 260.2 12.2 259.6 11.8 259 11.5 258.4 11.4 257.9 11.3 199.6 11.3 200.1 11.4 199.5 11.3 198.8 11.4 198.2 11.7 197.6 12 197.1 12.5 196.6 13 196.2 13.7 195.9 14.4 195.7 15.1 195.6 15.9 195.6 16.3 195.6 33.8 195.6 33.5 195.6 34.2 195.7 35 195.9 35.8 196.2 36.5 196.6 37.2 197.1 37.7 197.6 38.2 198.2 38.5 198.8 38.7 199.5 38.8 199.6 38.8"/>
  <polygon class="st4" points="265.9 266.5 379.3 266.5 379.2 266.5 379.8 266.5 380.5 266.3 381.1 266 381.6 265.6 382.1 265.1 382.6 264.5 382.9 263.9 383.2 263.1 383.3 262.3 383.4 261.5 383.4 261.5 383.4 222.3 383.4 222.3 383.3 221.5 383.2 220.7 382.9 220 382.6 219.3 382.1 218.7 381.6 218.2 381.1 217.8 380.5 217.5 379.8 217.3 379.3 217.3 265.9 217.3 266.4 217.3 265.8 217.3 265.1 217.4 264.5 217.6 263.9 218 263.4 218.4 262.9 219 262.5 219.6 262.2 220.3 262 221.1 261.9 221.9 261.9 222.3 261.9 261.5 261.9 261.1 261.9 261.9 262 262.7 262.2 263.5 262.5 264.2 262.9 264.8 263.4 265.4 263.9 265.9 264.5 266.2 265.1 266.4 265.8 266.5 265.9 266.5"/>
  <polygon class="st4" points="265.9 217.3 321.7 217.3 321.5 217.3 322.2 217.3 322.8 217.1 323.4 216.8 324 216.4 324.5 215.9 324.9 215.3 325.3 214.6 325.5 213.9 325.7 213.1 325.7 212.3 325.7 212.3 325.7 143.4 325.7 143.4 325.7 142.6 325.5 141.8 325.3 141.1 324.9 140.4 324.5 139.8 324 139.3 323.4 138.9 322.8 138.6 322.2 138.4 321.7 138.4 265.9 138.4 266.4 138.4 265.8 138.4 265.1 138.5 264.5 138.7 263.9 139.1 263.4 139.5 262.9 140.1 262.5 140.7 262.2 141.4 262 142.2 261.9 143 261.9 143.4 261.9 212.3 261.9 211.9 261.9 212.7 262 213.5 262.2 214.3 262.5 215 262.9 215.6 263.4 216.2 263.9 216.6 264.5 217 265.1 217.2 265.8 217.3 265.9 217.3"/>
  <polygon class="st4" points="329.8 217.3 379.3 217.3 379.2 217.3 379.8 217.3 380.5 217.1 381.1 216.8 381.6 216.4 382.1 215.9 382.6 215.3 382.9 214.6 383.2 213.9 383.3 213.1 383.4 212.3 383.4 212.3 383.4 164.8 383.4 164.8 383.3 164 383.2 163.2 382.9 162.5 382.6 161.8 382.1 161.2 381.6 160.7 381.1 160.3 380.5 160 379.8 159.9 379.3 159.8 329.8 159.8 330.2 159.9 329.6 159.9 328.9 159.9 328.3 160.2 327.7 160.5 327.2 161 326.7 161.5 326.4 162.2 326.1 162.9 325.8 163.6 325.7 164.4 325.7 164.8 325.7 212.3 325.7 211.9 325.7 212.7 325.8 213.5 326.1 214.3 326.4 215 326.7 215.6 327.2 216.2 327.7 216.6 328.3 217 328.9 217.2 329.6 217.3 329.8 217.3"/>
  <polygon class="st4" points="329.8 159.8 379.3 159.8 379.2 159.8 379.8 159.8 380.5 159.6 381.1 159.4 381.6 159 382.1 158.4 382.6 157.9 382.9 157.2 383.2 156.4 383.3 155.7 383.4 154.9 383.4 154.9 383.4 143.4 383.4 143.4 383.3 142.6 383.2 141.8 382.9 141.1 382.6 140.4 382.1 139.8 381.6 139.3 381.1 138.9 380.5 138.6 379.8 138.4 379.3 138.4 329.8 138.4 330.2 138.4 329.6 138.4 328.9 138.5 328.3 138.7 327.7 139.1 327.2 139.5 326.7 140.1 326.4 140.7 326.1 141.4 325.8 142.2 325.7 143 325.7 143.4 325.7 154.9 325.7 154.5 325.7 155.3 325.8 156.1 326.1 156.8 326.4 157.5 326.7 158.2 327.2 158.7 327.7 159.2 328.3 159.5 328.9 159.7 329.6 159.8 329.8 159.8"/>
  <polygon class="st1" points="265.9 138.4 379.3 138.4 379.2 138.4 379.8 138.4 380.5 138.2 381.1 137.9 381.6 137.5 382.1 137 382.6 136.4 382.9 135.7 383.2 135 383.3 134.2 383.4 133.4 383.4 133.4 383.4 81.8 383.4 81.8 383.3 81 383.2 80.2 382.9 79.5 382.6 78.8 382.1 78.2 381.6 77.7 381.1 77.3 380.5 77 379.8 76.8 379.3 76.8 265.9 76.8 266.4 76.8 265.8 76.8 265.1 76.9 264.5 77.1 263.9 77.5 263.4 77.9 262.9 78.5 262.5 79.1 262.2 79.8 262 80.6 261.9 81.4 261.9 81.8 261.9 133.4 261.9 133 261.9 133.8 262 134.6 262.2 135.4 262.5 136.1 262.9 136.7 263.4 137.3 263.9 137.7 264.5 138.1 265.1 138.3 265.8 138.4 265.9 138.4"/>
  <polygon class="st1" points="265.9 76.8 379.3 76.8 379.2 76.8 379.8 76.8 380.5 76.6 381.1 76.3 381.6 75.9 382.1 75.4 382.6 74.8 382.9 74.1 383.2 73.4 383.3 72.6 383.4 71.8 383.4 71.8 383.4 35 383.4 35 383.3 34.2 383.2 33.4 382.9 32.6 382.6 32 382.1 31.4 381.6 30.9 381.1 30.5 380.5 30.2 379.8 30 379.3 30 265.9 30 266.4 30 265.8 30 265.1 30.1 264.5 30.3 263.9 30.6 263.4 31.1 262.9 31.7 262.5 32.3 262.2 33 262 33.8 261.9 34.6 261.9 35 261.9 71.8 261.9 71.4 261.9 72.2 262 73 262.2 73.8 262.5 74.5 262.9 75.1 263.4 75.7 263.9 76.1 264.5 76.5 265.1 76.7 265.8 76.8 265.9 76.8"/>
  <text class="st7" transform="translate(264.2 23.1) scale(.9 1)"><tspan x="0" y="0">Business</tspan></text>
  <text class="st5" transform="translate(48.1 29) scale(.9 1)"><tspan x="0" y="0">Hard Science</tspan></text>
  <text class="st5" transform="translate(265.8 156.8) scale(.9 1)"><tspan x="0" y="0">Non-Science</tspan></text>
  <text class="st5" transform="translate(265.8 46.6) scale(.9 1)"><tspan x="0" y="0">Social Science</tspan></text>
  <rect class="st0" x="39" y="-16" width="348.8" height="288"/>
  <text class="st10" transform="translate(60.5 278.9) scale(1 1)"><tspan x="0" y="0">More than 30 Percent of Doctoral Enrollments in 2023 Come From Social Science and Humanities an Arts </tspan></text>
  <text class="st11" transform="translate(49.8 42.3) scale(.9 1)"><tspan x="0" y="0">37,188 students enrolled</tspan></text>
  <text class="st9" transform="translate(267.3 60.5) scale(.9 1)"><tspan x="0" y="0">8,785 students enrolled</tspan></text>
  <text class="st9" transform="translate(265.8 167.9) scale(.9 1)"><tspan x="0" y="0">10,379 enrolled</tspan></text>
  <text class="st8" transform="translate(315.9 22.4) scale(1 1)"><tspan x="0" y="0">1,510 enrollments</tspan></text>
</svg>